<mxfile host="app.diagrams.net" modified="2023-03-17T11:07:04.127Z" agent="5.0 (Windows NT 10.0; Win64; x64) AppleWebKit/537.36 (KHTML, like Gecko) Chrome/111.0.0.0 Safari/537.36" etag="TMTT2ddxK1DGhvHdEdiE" version="21.0.6" type="github">
  <diagram name="Page-1" id="O5M5pIFOQSAJhJZ8RXcd">
    <mxGraphModel dx="2227" dy="1933" grid="1" gridSize="10" guides="1" tooltips="1" connect="1" arrows="1" fold="1" page="1" pageScale="1" pageWidth="827" pageHeight="1169" math="0" shadow="0">
      <root>
        <mxCell id="0" />
        <mxCell id="1" parent="0" />
        <mxCell id="-PJM9IAdAdkgcbR_65MC-1" value="" style="rounded=0;whiteSpace=wrap;html=1;fillColor=#fff2cc;strokeColor=#d6b656;" vertex="1" parent="1">
          <mxGeometry x="-480" y="180" width="820" height="300" as="geometry" />
        </mxCell>
        <mxCell id="-PJM9IAdAdkgcbR_65MC-2" value="" style="rounded=0;whiteSpace=wrap;html=1;fillColor=#d5e8d4;strokeColor=#82b366;" vertex="1" parent="1">
          <mxGeometry x="600" y="200" width="350" height="260" as="geometry" />
        </mxCell>
        <mxCell id="-PJM9IAdAdkgcbR_65MC-3" value="" style="rounded=0;whiteSpace=wrap;html=1;fillColor=#f8cecc;strokeColor=#b85450;" vertex="1" parent="1">
          <mxGeometry x="300" y="560" width="350" height="260" as="geometry" />
        </mxCell>
        <mxCell id="-PJM9IAdAdkgcbR_65MC-5" value="" style="fontColor=#0066CC;verticalAlign=top;verticalLabelPosition=bottom;labelPosition=center;align=center;html=1;outlineConnect=0;fillColor=#CCCCCC;strokeColor=#6881B3;gradientColor=none;gradientDirection=north;strokeWidth=2;shape=mxgraph.networks.firewall;" vertex="1" parent="1">
          <mxGeometry x="413.5" y="290" width="100" height="100" as="geometry" />
        </mxCell>
        <mxCell id="-PJM9IAdAdkgcbR_65MC-11" value="&lt;b&gt;DMZ&lt;/b&gt;" style="text;strokeColor=none;align=center;fillColor=none;html=1;verticalAlign=middle;whiteSpace=wrap;rounded=0;" vertex="1" parent="1">
          <mxGeometry x="600" y="200" width="60" height="30" as="geometry" />
        </mxCell>
        <mxCell id="-PJM9IAdAdkgcbR_65MC-12" value="&lt;b&gt;USERS&lt;/b&gt;" style="text;strokeColor=none;align=center;fillColor=none;html=1;verticalAlign=middle;whiteSpace=wrap;rounded=0;" vertex="1" parent="1">
          <mxGeometry x="-410" y="190" width="60" height="30" as="geometry" />
        </mxCell>
        <mxCell id="-PJM9IAdAdkgcbR_65MC-13" value="&lt;b&gt;Zone&lt;br&gt;Interne&lt;br&gt;172.16.0.0/24&lt;br&gt;&lt;br&gt;&lt;/b&gt;" style="text;strokeColor=none;align=center;fillColor=none;html=1;verticalAlign=middle;whiteSpace=wrap;rounded=0;" vertex="1" parent="1">
          <mxGeometry x="300" y="570" width="110" height="50" as="geometry" />
        </mxCell>
        <mxCell id="-PJM9IAdAdkgcbR_65MC-16" style="edgeStyle=orthogonalEdgeStyle;rounded=0;orthogonalLoop=1;jettySize=auto;html=1;entryX=0.5;entryY=0;entryDx=0;entryDy=0;entryPerimeter=0;endArrow=none;endFill=0;" edge="1" parent="1" source="-PJM9IAdAdkgcbR_65MC-14" target="-PJM9IAdAdkgcbR_65MC-5">
          <mxGeometry relative="1" as="geometry">
            <Array as="points">
              <mxPoint x="460" y="170" />
              <mxPoint x="464" y="170" />
            </Array>
          </mxGeometry>
        </mxCell>
        <mxCell id="-PJM9IAdAdkgcbR_65MC-14" value="" style="html=1;outlineConnect=0;fillColor=#CCCCCC;strokeColor=#6881B3;gradientColor=none;gradientDirection=north;strokeWidth=2;shape=mxgraph.networks.cloud;fontColor=#ffffff;" vertex="1" parent="1">
          <mxGeometry x="424" width="90" height="50" as="geometry" />
        </mxCell>
        <mxCell id="-PJM9IAdAdkgcbR_65MC-15" value="&lt;b&gt;INTERNET&lt;/b&gt;" style="text;strokeColor=none;align=center;fillColor=none;html=1;verticalAlign=middle;whiteSpace=wrap;rounded=0;" vertex="1" parent="1">
          <mxGeometry x="370" width="60" height="30" as="geometry" />
        </mxCell>
        <mxCell id="-PJM9IAdAdkgcbR_65MC-19" style="edgeStyle=orthogonalEdgeStyle;rounded=0;orthogonalLoop=1;jettySize=auto;html=1;endArrow=none;endFill=0;" edge="1" parent="1" source="-PJM9IAdAdkgcbR_65MC-17">
          <mxGeometry relative="1" as="geometry">
            <mxPoint x="410" y="345" as="targetPoint" />
          </mxGeometry>
        </mxCell>
        <mxCell id="-PJM9IAdAdkgcbR_65MC-17" value="" style="fontColor=#0066CC;verticalAlign=top;verticalLabelPosition=bottom;labelPosition=center;align=center;html=1;outlineConnect=0;fillColor=#CCCCCC;strokeColor=#6881B3;gradientColor=none;gradientDirection=north;strokeWidth=2;shape=mxgraph.networks.router;rotation=-90;" vertex="1" parent="1">
          <mxGeometry x="300" y="330" width="100" height="30" as="geometry" />
        </mxCell>
        <mxCell id="-PJM9IAdAdkgcbR_65MC-21" style="edgeStyle=orthogonalEdgeStyle;rounded=0;orthogonalLoop=1;jettySize=auto;html=1;endArrow=none;endFill=0;" edge="1" parent="1" source="-PJM9IAdAdkgcbR_65MC-20" target="-PJM9IAdAdkgcbR_65MC-5">
          <mxGeometry relative="1" as="geometry" />
        </mxCell>
        <mxCell id="-PJM9IAdAdkgcbR_65MC-62" style="edgeStyle=orthogonalEdgeStyle;rounded=0;orthogonalLoop=1;jettySize=auto;html=1;entryX=0;entryY=0.5;entryDx=0;entryDy=0;entryPerimeter=0;endArrow=none;endFill=0;" edge="1" parent="1" source="-PJM9IAdAdkgcbR_65MC-20" target="-PJM9IAdAdkgcbR_65MC-56">
          <mxGeometry relative="1" as="geometry" />
        </mxCell>
        <mxCell id="-PJM9IAdAdkgcbR_65MC-20" value="" style="fontColor=#0066CC;verticalAlign=top;verticalLabelPosition=bottom;labelPosition=center;align=center;html=1;outlineConnect=0;fillColor=#CCCCCC;strokeColor=#6881B3;gradientColor=none;gradientDirection=north;strokeWidth=2;shape=mxgraph.networks.router;rotation=90;" vertex="1" parent="1">
          <mxGeometry x="540" y="330" width="100" height="30" as="geometry" />
        </mxCell>
        <mxCell id="-PJM9IAdAdkgcbR_65MC-23" style="edgeStyle=orthogonalEdgeStyle;rounded=0;orthogonalLoop=1;jettySize=auto;html=1;entryX=0.5;entryY=1;entryDx=0;entryDy=0;entryPerimeter=0;endArrow=none;endFill=0;" edge="1" parent="1" source="-PJM9IAdAdkgcbR_65MC-22" target="-PJM9IAdAdkgcbR_65MC-5">
          <mxGeometry relative="1" as="geometry" />
        </mxCell>
        <mxCell id="-PJM9IAdAdkgcbR_65MC-22" value="" style="fontColor=#0066CC;verticalAlign=top;verticalLabelPosition=bottom;labelPosition=center;align=center;html=1;outlineConnect=0;fillColor=#CCCCCC;strokeColor=#6881B3;gradientColor=none;gradientDirection=north;strokeWidth=2;shape=mxgraph.networks.router;rotation=-180;" vertex="1" parent="1">
          <mxGeometry x="419" y="530" width="100" height="30" as="geometry" />
        </mxCell>
        <mxCell id="-PJM9IAdAdkgcbR_65MC-28" value="" style="fontColor=#0066CC;verticalAlign=top;verticalLabelPosition=bottom;labelPosition=center;align=center;html=1;outlineConnect=0;fillColor=#CCCCCC;strokeColor=#6881B3;gradientColor=none;gradientDirection=north;strokeWidth=2;shape=mxgraph.networks.server;" vertex="1" parent="1">
          <mxGeometry x="310" y="655" width="70" height="70" as="geometry" />
        </mxCell>
        <mxCell id="-PJM9IAdAdkgcbR_65MC-29" value="" style="fontColor=#0066CC;verticalAlign=top;verticalLabelPosition=bottom;labelPosition=center;align=center;html=1;outlineConnect=0;fillColor=#CCCCCC;strokeColor=#6881B3;gradientColor=none;gradientDirection=north;strokeWidth=2;shape=mxgraph.networks.server;" vertex="1" parent="1">
          <mxGeometry x="400" y="660" width="70" height="70" as="geometry" />
        </mxCell>
        <mxCell id="-PJM9IAdAdkgcbR_65MC-30" value="" style="fontColor=#0066CC;verticalAlign=top;verticalLabelPosition=bottom;labelPosition=center;align=center;html=1;outlineConnect=0;fillColor=#CCCCCC;strokeColor=#6881B3;gradientColor=none;gradientDirection=north;strokeWidth=2;shape=mxgraph.networks.server;" vertex="1" parent="1">
          <mxGeometry x="580" y="660" width="70" height="70" as="geometry" />
        </mxCell>
        <mxCell id="-PJM9IAdAdkgcbR_65MC-31" value="&lt;b&gt;SOA INTERNE&lt;/b&gt;" style="text;strokeColor=none;align=center;fillColor=none;html=1;verticalAlign=middle;whiteSpace=wrap;rounded=0;" vertex="1" parent="1">
          <mxGeometry x="315" y="730" width="60" height="30" as="geometry" />
        </mxCell>
        <mxCell id="-PJM9IAdAdkgcbR_65MC-32" value="" style="fontColor=#0066CC;verticalAlign=top;verticalLabelPosition=bottom;labelPosition=center;align=center;html=1;outlineConnect=0;fillColor=#CCCCCC;strokeColor=#6881B3;gradientColor=none;gradientDirection=north;strokeWidth=2;shape=mxgraph.networks.server;" vertex="1" parent="1">
          <mxGeometry x="490" y="660" width="70" height="70" as="geometry" />
        </mxCell>
        <mxCell id="-PJM9IAdAdkgcbR_65MC-33" value="&lt;b&gt;MAIL&lt;/b&gt;" style="text;strokeColor=none;align=center;fillColor=none;html=1;verticalAlign=middle;whiteSpace=wrap;rounded=0;" vertex="1" parent="1">
          <mxGeometry x="405" y="730" width="60" height="30" as="geometry" />
        </mxCell>
        <mxCell id="-PJM9IAdAdkgcbR_65MC-34" value="&lt;b&gt;WEB&lt;/b&gt;" style="text;strokeColor=none;align=center;fillColor=none;html=1;verticalAlign=middle;whiteSpace=wrap;rounded=0;" vertex="1" parent="1">
          <mxGeometry x="495" y="730" width="60" height="30" as="geometry" />
        </mxCell>
        <mxCell id="-PJM9IAdAdkgcbR_65MC-35" value="&lt;b&gt;RÃ©solveur&lt;/b&gt;" style="text;strokeColor=none;align=center;fillColor=none;html=1;verticalAlign=middle;whiteSpace=wrap;rounded=0;" vertex="1" parent="1">
          <mxGeometry x="585" y="730" width="60" height="30" as="geometry" />
        </mxCell>
        <mxCell id="-PJM9IAdAdkgcbR_65MC-36" value="172.16.0.1:53&lt;br&gt;tcp/udp" style="text;strokeColor=none;align=center;fillColor=none;html=1;verticalAlign=middle;whiteSpace=wrap;rounded=0;" vertex="1" parent="1">
          <mxGeometry x="305" y="760" width="90" height="30" as="geometry" />
        </mxCell>
        <mxCell id="-PJM9IAdAdkgcbR_65MC-37" value="172.16.0.2:53&lt;br&gt;tcp/udp" style="text;strokeColor=none;align=center;fillColor=none;html=1;verticalAlign=middle;whiteSpace=wrap;rounded=0;" vertex="1" parent="1">
          <mxGeometry x="560" y="750" width="90" height="30" as="geometry" />
        </mxCell>
        <mxCell id="-PJM9IAdAdkgcbR_65MC-38" value="172.16.0.3&lt;br&gt;smtp :25&lt;br&gt;pop:110&lt;br&gt;imap:993" style="text;strokeColor=none;align=center;fillColor=none;html=1;verticalAlign=middle;whiteSpace=wrap;rounded=0;" vertex="1" parent="1">
          <mxGeometry x="390" y="760" width="80" height="50" as="geometry" />
        </mxCell>
        <mxCell id="-PJM9IAdAdkgcbR_65MC-39" value="172.16.0.4:80&lt;br&gt;http/https" style="text;strokeColor=none;align=center;fillColor=none;html=1;verticalAlign=middle;whiteSpace=wrap;rounded=0;" vertex="1" parent="1">
          <mxGeometry x="480" y="745" width="90" height="60" as="geometry" />
        </mxCell>
        <mxCell id="-PJM9IAdAdkgcbR_65MC-52" value="" style="endArrow=none;html=1;rounded=0;exitX=0.5;exitY=0;exitDx=0;exitDy=0;exitPerimeter=0;entryX=0.5;entryY=0;entryDx=0;entryDy=0;" edge="1" parent="1" source="-PJM9IAdAdkgcbR_65MC-28" target="-PJM9IAdAdkgcbR_65MC-3">
          <mxGeometry width="50" height="50" relative="1" as="geometry">
            <mxPoint x="430" y="750" as="sourcePoint" />
            <mxPoint x="480" y="590" as="targetPoint" />
          </mxGeometry>
        </mxCell>
        <mxCell id="-PJM9IAdAdkgcbR_65MC-53" value="" style="endArrow=none;html=1;rounded=0;entryX=0.5;entryY=0;entryDx=0;entryDy=0;entryPerimeter=0;exitX=0.5;exitY=0;exitDx=0;exitDy=0;exitPerimeter=0;" edge="1" parent="1" source="-PJM9IAdAdkgcbR_65MC-29" target="-PJM9IAdAdkgcbR_65MC-22">
          <mxGeometry width="50" height="50" relative="1" as="geometry">
            <mxPoint x="430" y="750" as="sourcePoint" />
            <mxPoint x="480" y="700" as="targetPoint" />
          </mxGeometry>
        </mxCell>
        <mxCell id="-PJM9IAdAdkgcbR_65MC-54" value="" style="endArrow=none;html=1;rounded=0;entryX=0.5;entryY=0;entryDx=0;entryDy=0;entryPerimeter=0;exitX=0.5;exitY=0;exitDx=0;exitDy=0;exitPerimeter=0;" edge="1" parent="1" source="-PJM9IAdAdkgcbR_65MC-32" target="-PJM9IAdAdkgcbR_65MC-22">
          <mxGeometry width="50" height="50" relative="1" as="geometry">
            <mxPoint x="430" y="750" as="sourcePoint" />
            <mxPoint x="480" y="700" as="targetPoint" />
          </mxGeometry>
        </mxCell>
        <mxCell id="-PJM9IAdAdkgcbR_65MC-55" value="" style="endArrow=none;html=1;rounded=0;entryX=0.5;entryY=0;entryDx=0;entryDy=0;entryPerimeter=0;exitX=0.5;exitY=0;exitDx=0;exitDy=0;exitPerimeter=0;" edge="1" parent="1" source="-PJM9IAdAdkgcbR_65MC-30" target="-PJM9IAdAdkgcbR_65MC-22">
          <mxGeometry width="50" height="50" relative="1" as="geometry">
            <mxPoint x="430" y="750" as="sourcePoint" />
            <mxPoint x="480" y="700" as="targetPoint" />
          </mxGeometry>
        </mxCell>
        <mxCell id="-PJM9IAdAdkgcbR_65MC-56" value="" style="fontColor=#0066CC;verticalAlign=top;verticalLabelPosition=bottom;labelPosition=center;align=center;html=1;outlineConnect=0;fillColor=#CCCCCC;strokeColor=#6881B3;gradientColor=none;gradientDirection=north;strokeWidth=2;shape=mxgraph.networks.server;" vertex="1" parent="1">
          <mxGeometry x="750" y="210" width="70" height="70" as="geometry" />
        </mxCell>
        <mxCell id="-PJM9IAdAdkgcbR_65MC-63" style="edgeStyle=orthogonalEdgeStyle;rounded=0;orthogonalLoop=1;jettySize=auto;html=1;exitX=0;exitY=0.5;exitDx=0;exitDy=0;exitPerimeter=0;endArrow=none;endFill=0;" edge="1" parent="1" source="-PJM9IAdAdkgcbR_65MC-57" target="-PJM9IAdAdkgcbR_65MC-20">
          <mxGeometry relative="1" as="geometry" />
        </mxCell>
        <mxCell id="-PJM9IAdAdkgcbR_65MC-57" value="" style="fontColor=#0066CC;verticalAlign=top;verticalLabelPosition=bottom;labelPosition=center;align=center;html=1;outlineConnect=0;fillColor=#CCCCCC;strokeColor=#6881B3;gradientColor=none;gradientDirection=north;strokeWidth=2;shape=mxgraph.networks.server;" vertex="1" parent="1">
          <mxGeometry x="750" y="380" width="70" height="70" as="geometry" />
        </mxCell>
        <mxCell id="-PJM9IAdAdkgcbR_65MC-64" style="edgeStyle=orthogonalEdgeStyle;rounded=0;orthogonalLoop=1;jettySize=auto;html=1;exitX=0;exitY=0.5;exitDx=0;exitDy=0;exitPerimeter=0;entryX=0.5;entryY=0;entryDx=0;entryDy=0;entryPerimeter=0;endArrow=none;endFill=0;" edge="1" parent="1" source="-PJM9IAdAdkgcbR_65MC-58" target="-PJM9IAdAdkgcbR_65MC-20">
          <mxGeometry relative="1" as="geometry" />
        </mxCell>
        <mxCell id="-PJM9IAdAdkgcbR_65MC-58" value="" style="fontColor=#0066CC;verticalAlign=top;verticalLabelPosition=bottom;labelPosition=center;align=center;html=1;outlineConnect=0;fillColor=#CCCCCC;strokeColor=#6881B3;gradientColor=none;gradientDirection=north;strokeWidth=2;shape=mxgraph.networks.server;" vertex="1" parent="1">
          <mxGeometry x="750" y="295" width="70" height="70" as="geometry" />
        </mxCell>
        <mxCell id="-PJM9IAdAdkgcbR_65MC-59" value="&lt;b&gt;WEB&lt;/b&gt;" style="text;strokeColor=none;align=center;fillColor=none;html=1;verticalAlign=middle;whiteSpace=wrap;rounded=0;" vertex="1" parent="1">
          <mxGeometry x="820" y="220" width="60" height="30" as="geometry" />
        </mxCell>
        <mxCell id="-PJM9IAdAdkgcbR_65MC-60" value="&lt;b&gt;MAIL&lt;/b&gt;" style="text;strokeColor=none;align=center;fillColor=none;html=1;verticalAlign=middle;whiteSpace=wrap;rounded=0;" vertex="1" parent="1">
          <mxGeometry x="820" y="300" width="60" height="30" as="geometry" />
        </mxCell>
        <mxCell id="-PJM9IAdAdkgcbR_65MC-61" value="&lt;b&gt;SOA EXTERNE&lt;/b&gt;" style="text;strokeColor=none;align=center;fillColor=none;html=1;verticalAlign=middle;whiteSpace=wrap;rounded=0;" vertex="1" parent="1">
          <mxGeometry x="820" y="390" width="70" height="30" as="geometry" />
        </mxCell>
        <mxCell id="-PJM9IAdAdkgcbR_65MC-65" value="&lt;b&gt;&lt;br&gt;172.16.1.0/24&lt;/b&gt;" style="text;strokeColor=none;align=center;fillColor=none;html=1;verticalAlign=middle;whiteSpace=wrap;rounded=0;" vertex="1" parent="1">
          <mxGeometry x="580" y="210" width="120" height="30" as="geometry" />
        </mxCell>
        <mxCell id="-PJM9IAdAdkgcbR_65MC-66" value="172.16.1.1:80&lt;br&gt;https/http" style="text;strokeColor=none;align=center;fillColor=none;html=1;verticalAlign=middle;whiteSpace=wrap;rounded=0;" vertex="1" parent="1">
          <mxGeometry x="830" y="250" width="60" height="30" as="geometry" />
        </mxCell>
        <mxCell id="-PJM9IAdAdkgcbR_65MC-67" value="172.16.1.2&lt;br&gt;smtp :25&lt;br&gt;pop:110&lt;br&gt;imap:993" style="text;strokeColor=none;align=center;fillColor=none;html=1;verticalAlign=middle;whiteSpace=wrap;rounded=0;" vertex="1" parent="1">
          <mxGeometry x="820" y="330" width="80" height="50" as="geometry" />
        </mxCell>
        <mxCell id="-PJM9IAdAdkgcbR_65MC-68" value="172.16.1.3:53&lt;br&gt;tcp/udp" style="text;strokeColor=none;align=center;fillColor=none;html=1;verticalAlign=middle;whiteSpace=wrap;rounded=0;" vertex="1" parent="1">
          <mxGeometry x="820" y="420" width="90" height="30" as="geometry" />
        </mxCell>
        <mxCell id="-PJM9IAdAdkgcbR_65MC-70" value="&lt;b&gt;192.168.0.0/24&lt;/b&gt;" style="text;strokeColor=none;align=center;fillColor=none;html=1;verticalAlign=middle;whiteSpace=wrap;rounded=0;" vertex="1" parent="1">
          <mxGeometry x="-400" y="210" width="60" height="30" as="geometry" />
        </mxCell>
        <mxCell id="-PJM9IAdAdkgcbR_65MC-73" value="" style="fontColor=#0066CC;verticalAlign=top;verticalLabelPosition=bottom;labelPosition=center;align=center;html=1;outlineConnect=0;fillColor=#CCCCCC;strokeColor=#6881B3;gradientColor=none;gradientDirection=north;strokeWidth=2;shape=mxgraph.networks.pc;" vertex="1" parent="1">
          <mxGeometry x="10" y="315" width="70" height="60" as="geometry" />
        </mxCell>
        <mxCell id="-PJM9IAdAdkgcbR_65MC-74" value="" style="fontColor=#0066CC;verticalAlign=top;verticalLabelPosition=bottom;labelPosition=center;align=center;html=1;outlineConnect=0;fillColor=#CCCCCC;strokeColor=#6881B3;gradientColor=none;gradientDirection=north;strokeWidth=2;shape=mxgraph.networks.pc;" vertex="1" parent="1">
          <mxGeometry x="110" y="315" width="70" height="60" as="geometry" />
        </mxCell>
        <mxCell id="-PJM9IAdAdkgcbR_65MC-75" value="" style="fontColor=#0066CC;verticalAlign=top;verticalLabelPosition=bottom;labelPosition=center;align=center;html=1;outlineConnect=0;fillColor=#CCCCCC;strokeColor=#6881B3;gradientColor=none;gradientDirection=north;strokeWidth=2;shape=mxgraph.networks.pc;" vertex="1" parent="1">
          <mxGeometry x="210" y="315" width="70" height="60" as="geometry" />
        </mxCell>
        <mxCell id="-PJM9IAdAdkgcbR_65MC-76" value="Atelier&lt;br&gt;192.168.1.0/24" style="text;strokeColor=none;align=center;fillColor=none;html=1;verticalAlign=middle;whiteSpace=wrap;rounded=0;" vertex="1" parent="1">
          <mxGeometry x="15" y="380" width="60" height="30" as="geometry" />
        </mxCell>
        <mxCell id="-PJM9IAdAdkgcbR_65MC-77" value="Hangar&lt;br&gt;192.168.2.0/24" style="text;strokeColor=none;align=center;fillColor=none;html=1;verticalAlign=middle;whiteSpace=wrap;rounded=0;" vertex="1" parent="1">
          <mxGeometry x="115" y="380" width="60" height="30" as="geometry" />
        </mxCell>
        <mxCell id="-PJM9IAdAdkgcbR_65MC-78" value="Bureau du directeur&lt;br&gt;192.168.2.0/24" style="text;strokeColor=none;align=center;fillColor=none;html=1;verticalAlign=middle;whiteSpace=wrap;rounded=0;" vertex="1" parent="1">
          <mxGeometry x="207.5" y="375" width="75" height="45" as="geometry" />
        </mxCell>
        <mxCell id="-PJM9IAdAdkgcbR_65MC-79" value="" style="rounded=1;whiteSpace=wrap;html=1;fillColor=none;" vertex="1" parent="1">
          <mxGeometry x="-370" y="295" width="360" height="110" as="geometry" />
        </mxCell>
        <mxCell id="-PJM9IAdAdkgcbR_65MC-83" value="" style="fontColor=#0066CC;verticalAlign=top;verticalLabelPosition=bottom;labelPosition=center;align=center;html=1;outlineConnect=0;fillColor=#CCCCCC;strokeColor=#6881B3;gradientColor=none;gradientDirection=north;strokeWidth=2;shape=mxgraph.networks.pc;" vertex="1" parent="1">
          <mxGeometry x="-350" y="305" width="70" height="60" as="geometry" />
        </mxCell>
        <mxCell id="-PJM9IAdAdkgcbR_65MC-84" value="" style="fontColor=#0066CC;verticalAlign=top;verticalLabelPosition=bottom;labelPosition=center;align=center;html=1;outlineConnect=0;fillColor=#CCCCCC;strokeColor=#6881B3;gradientColor=none;gradientDirection=north;strokeWidth=2;shape=mxgraph.networks.pc;" vertex="1" parent="1">
          <mxGeometry x="-240" y="305" width="70" height="60" as="geometry" />
        </mxCell>
        <mxCell id="-PJM9IAdAdkgcbR_65MC-85" value="" style="fontColor=#0066CC;verticalAlign=top;verticalLabelPosition=bottom;labelPosition=center;align=center;html=1;outlineConnect=0;fillColor=#CCCCCC;strokeColor=#6881B3;gradientColor=none;gradientDirection=north;strokeWidth=2;shape=mxgraph.networks.pc;" vertex="1" parent="1">
          <mxGeometry x="-120" y="305" width="70" height="60" as="geometry" />
        </mxCell>
        <mxCell id="-PJM9IAdAdkgcbR_65MC-86" value="Bureau des employÃ©es&lt;br&gt;192.168.3.0/24" style="text;strokeColor=none;align=center;fillColor=none;html=1;verticalAlign=middle;whiteSpace=wrap;rounded=0;" vertex="1" parent="1">
          <mxGeometry x="-260" y="405" width="140" height="30" as="geometry" />
        </mxCell>
        <mxCell id="-PJM9IAdAdkgcbR_65MC-87" value="" style="fontColor=#0066CC;verticalAlign=top;verticalLabelPosition=bottom;labelPosition=center;align=center;html=1;outlineConnect=0;fillColor=#CCCCCC;strokeColor=#6881B3;gradientColor=none;gradientDirection=north;strokeWidth=2;shape=mxgraph.networks.wireless_modem;" vertex="1" parent="1">
          <mxGeometry x="-470" y="305" width="80" height="81" as="geometry" />
        </mxCell>
        <mxCell id="-PJM9IAdAdkgcbR_65MC-88" value="RÃ©seau WI-FI LAN" style="text;strokeColor=none;align=center;fillColor=none;html=1;verticalAlign=middle;whiteSpace=wrap;rounded=0;" vertex="1" parent="1">
          <mxGeometry x="-460" y="400" width="60" height="30" as="geometry" />
        </mxCell>
        <mxCell id="-PJM9IAdAdkgcbR_65MC-89" value="Comptable" style="text;strokeColor=none;align=center;fillColor=none;html=1;verticalAlign=middle;whiteSpace=wrap;rounded=0;" vertex="1" parent="1">
          <mxGeometry x="-345" y="365" width="60" height="30" as="geometry" />
        </mxCell>
        <mxCell id="-PJM9IAdAdkgcbR_65MC-90" value="Commerciaux" style="text;strokeColor=none;align=center;fillColor=none;html=1;verticalAlign=middle;whiteSpace=wrap;rounded=0;" vertex="1" parent="1">
          <mxGeometry x="-235" y="365" width="60" height="30" as="geometry" />
        </mxCell>
        <mxCell id="-PJM9IAdAdkgcbR_65MC-91" value="SecrÃ©taire" style="text;strokeColor=none;align=center;fillColor=none;html=1;verticalAlign=middle;whiteSpace=wrap;rounded=0;" vertex="1" parent="1">
          <mxGeometry x="-115" y="370" width="60" height="30" as="geometry" />
        </mxCell>
      </root>
    </mxGraphModel>
  </diagram>
</mxfile>
